HIERARCHY
ROOT Hips
{
  OFFSET 60.5173 86.6705 34.7411
  CHANNELS 6 Xposition Yposition Zposition Zrotation Xrotation Yrotation
  JOINT spine
  {
    OFFSET 0 6.84637 0.3937
    CHANNELS 3 Zrotation Xrotation Yrotation
    JOINT spine1
    {
      OFFSET 0 9.49621 0
      CHANNELS 3 Zrotation Xrotation Yrotation
      JOINT spine2
      {
        OFFSET 0 9.09909 0
        CHANNELS 3 Zrotation Xrotation Yrotation
        JOINT Neck
        {
          OFFSET 0 23.3612 1.11378
          CHANNELS 3 Zrotation Xrotation Yrotation
          JOINT Head
          {
            OFFSET 0 7.05802 0
            CHANNELS 3 Zrotation Xrotation Yrotation
            End Site
            {
              OFFSET 0 17.0844 -5.63419
            }
          }
        }
        JOINT RightShoulder
        {
          OFFSET -3.83136 9.82631 -0.533491
          CHANNELS 3 Zrotation Xrotation Yrotation
          JOINT RightArm
          {
            OFFSET 0 12.8881 0
            CHANNELS 3 Zrotation Xrotation Yrotation
            JOINT RightArmRoll
            {
              OFFSET 0 6.50617 0
              CHANNELS 3 Zrotation Xrotation Yrotation
              JOINT RightForeArm
              {
                OFFSET 0 18.9501 0
                CHANNELS 3 Zrotation Xrotation Yrotation
                JOINT RightForeArmRoll
                {
                  OFFSET 0 7.30093 0
                  CHANNELS 3 Zrotation Xrotation Yrotation
                  JOINT RightHand
                  {
                    OFFSET 0 14.6514 0
                    CHANNELS 3 Zrotation Xrotation Yrotation
                    End Site
                    {
                      OFFSET 0 0 0
                    }
                  }
                }
              }
            }
          }
        }
        JOINT LeftShoulder
        {
          OFFSET 3.83136 9.82631 -0.533491
          CHANNELS 3 Zrotation Xrotation Yrotation
          JOINT LeftArm
          {
            OFFSET 0 12.8881 0
            CHANNELS 3 Zrotation Xrotation Yrotation
            JOINT LeftArmRoll
            {
              OFFSET 0 6.50617 0
              CHANNELS 3 Zrotation Xrotation Yrotation
              JOINT LeftForeArm
              {
                OFFSET 0 18.9501 0
                CHANNELS 3 Zrotation Xrotation Yrotation
                JOINT LeftForeArmRoll
                {
                  OFFSET 0 7.30093 0
                  CHANNELS 3 Zrotation Xrotation Yrotation
                  JOINT LeftHand
                  {
                    OFFSET 0 14.6514 0
                    CHANNELS 3 Zrotation Xrotation Yrotation
                    End Site
                    {
                      OFFSET 0 0 0
                    }
                  }
                }
              }
            }
          }
        }
      }
    }
  }
  JOINT RightUpLeg
  {
    OFFSET -6.06837 -1.11278 -0.933477
    CHANNELS 3 Zrotation Xrotation Yrotation
    JOINT RightUpLegRoll
    {
      OFFSET 0 17.1796 0
      CHANNELS 3 Zrotation Xrotation Yrotation
      JOINT RightLeg
      {
        OFFSET 0 -21.2743 0
        CHANNELS 3 Zrotation Xrotation Yrotation
        JOINT RightLegRoll
        {
          OFFSET 0 21.3439 0
          CHANNELS 3 Zrotation Xrotation Yrotation
          JOINT RightFoot
          {
            OFFSET 0 17.7652 0
            CHANNELS 3 Zrotation Xrotation Yrotation
            JOINT RightToeBase
            {
              OFFSET 0 14.8508 0
              CHANNELS 3 Zrotation Xrotation Yrotation
              End Site
              {
                OFFSET 0.0062947 7.19213 -0.829005
              }
            }
          }
        }
      }
    }
  }
  JOINT LeftUpLeg
  {
    OFFSET 6.06837 -1.11278 -0.933477
    CHANNELS 3 Zrotation Xrotation Yrotation
    JOINT LeftUpLegRoll
    {
      OFFSET 0 17.1797 0
      CHANNELS 3 Zrotation Xrotation Yrotation
      JOINT LeftLeg
      {
        OFFSET 0 21.2742 0
        CHANNELS 3 Zrotation Xrotation Yrotation
        JOINT LeftLegRoll
        {
          OFFSET 0 21.5412 0
          CHANNELS 3 Zrotation Xrotation Yrotation
          JOINT LeftFoot
          {
            OFFSET 0 17.5679 0
            CHANNELS 3 Zrotation Xrotation Yrotation
            JOINT LeftToeBase
            {
              OFFSET 0 14.8508 0
              CHANNELS 3 Zrotation Xrotation Yrotation
              End Site
              {
                OFFSET -0.0282102 7.19213 -0.829005
              }
            }
          }
        }
      }
    }
  }
}
MOTION
Frames: 6
Frame Time: 0.00208333
51.5815 86.5668 11.5942 1.99527 3.57449 -1.86283 1.03566 -1.52073 1.16176 2.07992 0.980329 2.21436 2.05467 2.62427 2.18057 -18.0719 0.697858 -2.57524 14.877 8.94169 -6.03578 53.2243 -7.31533 -4.30922 130.72 47.6291 -27.3025 7.13664e-006 -3.74823e-006 -1.11823e-005 25.3027 6.34194 -0.0371926 -1.28451e-005 -5.25243e-006 -3.01131 8.03008 -4.95138 0.697729 -71.0024 -7.5849 5.0634 -114.331 44.5672 7.59142 -3.74744e-007 2.6614e-008 -2.92708e-007 -27.8242 0.955111 -1.20993 6.50927e-006 -1.13405e-006 2.9999 -8.03044 -4.95136 -0.697709 176.927 20.7882 -1.35075 -180 7.01568e-015 179.02 176.609 24.7555 -179.855 1.11398e-006 3.14742e-006 0.586327 -22.1182 70.888 22.34 8.12896 25.2345 -3.48453 177.501 16.7516 4.58365 4.54188e-006 -4.6773e-006 -1.20753 -1.29521 -23.388 0.440146 -1.60676e-006 -2.56942e-006 -0.81274 24.2635 73.3484 -25.4252 -8.13061 25.2354 3.48511 
51.5789 86.5327 11.599 1.99557 3.64617 -1.84533 1.0357 -1.52165 1.16249 2.08099 0.977758 2.21585 2.05572 2.62169 2.18205 -18.0886 0.696195 -2.58479 14.8831 8.88602 -6.04069 53.2582 -7.33259 -4.32255 130.186 47.4031 -26.645 7.13664e-006 -3.74823e-006 -1.11823e-005 25.2504 6.1768 -0.00592566 -1.28451e-005 -5.25243e-006 -3.01131 8.03008 -4.95138 0.697729 -71.0783 -7.59511 5.07053 -114.234 44.3777 7.22236 -3.74744e-007 2.6614e-008 -2.92708e-007 -27.7392 1.03736 -1.17053 6.50927e-006 -1.13405e-006 2.99965 -8.03044 -4.95136 -0.697709 176.93 20.865 -1.36185 -180 7.01568e-015 179.02 176.61 24.7849 -179.855 1.11398e-006 3.14742e-006 0.586369 -22.142 70.9101 22.3669 8.12896 25.2345 -3.48453 177.49 16.829 4.60603 4.54188e-006 -4.6773e-006 -1.2073 -1.29103 -23.4147 0.441453 -1.60676e-006 -2.56942e-006 -0.814037 24.292 73.3665 -25.4524 -8.13061 25.2354 3.48511 
51.592 86.5473 11.6281 1.99601 3.71703 -1.82776 1.03575 -1.52253 1.16327 2.08208 0.975215 2.21747 2.05679 2.61915 2.18365 -18.1058 0.693836 -2.59368 14.8895 8.83181 -6.04512 53.2914 -7.34959 -4.3357 129.662 47.1699 -25.9958 7.13664e-006 -3.74823e-006 -1.11823e-005 25.1994 6.01174 0.0255681 -1.28451e-005 -5.25243e-006 -3.01131 8.03008 -4.95138 0.697729 -71.1533 -7.60513 5.07757 -114.146 44.1835 6.84985 -3.74744e-007 2.6614e-008 -2.92708e-007 -27.6482 1.12659 -1.12992 6.50927e-006 -1.13405e-006 2.99927 -8.03044 -4.95136 -0.697709 176.934 20.9413 -1.37299 -180 7.01568e-015 179.02 176.611 24.8148 -179.855 1.11398e-006 3.14742e-006 0.586431 -22.166 70.9325 22.3942 8.12896 25.2345 -3.48453 177.478 16.9056 4.62868 4.54188e-006 -4.6773e-006 -1.20712 -1.28676 -23.4416 0.442772 -1.60676e-006 -2.56942e-006 -0.81537 24.3207 73.3848 -25.4798 -8.13061 25.2354 3.48511 
51.5904 86.534 11.6377 1.99653 3.78733 -1.81015 1.0358 -1.52339 1.16408 2.08319 0.972693 2.21918 2.05788 2.61663 2.18533 -18.1232 0.69099 -2.60212 14.896 8.77863 -6.04922 53.3241 -7.36641 -4.34873 129.148 46.9302 -25.3542 7.13664e-006 -3.74823e-006 -1.11823e-005 25.1493 5.84672 0.0572154 -1.28451e-005 -5.25243e-006 -3.01131 8.03008 -4.95138 0.697729 -71.2276 -7.61503 5.08454 -114.066 43.9856 6.47576 -3.74744e-007 2.6614e-008 -2.92708e-007 -27.5533 1.22071 -1.08847 6.50927e-006 -1.13405e-006 2.9988 -8.03044 -4.95136 -0.697709 176.937 21.0172 -1.38417 -180 7.01568e-015 179.021 176.612 24.845 -179.854 1.11398e-006 3.14742e-006 0.586507 -22.1902 70.9549 22.4217 8.12896 25.2345 -3.48453 177.466 16.9817 4.65153 4.54188e-006 -4.6773e-006 -1.20696 -1.28243 -23.4686 0.4441 -1.60676e-006 -2.56942e-006 -0.816728 24.3496 73.403 -25.5073 -8.13061 25.2354 3.48511 
51.5826 86.5286 11.6318 1.99708 3.85729 -1.7925 1.03585 -1.52422 1.16491 2.0843 0.970182 2.22094 2.05897 2.61411 2.18706 -18.1409 0.687865 -2.6103 14.9027 8.72604 -6.05314 53.3566 -7.38313 -4.36168 128.643 46.6847 -24.7197 7.13664e-006 -3.74823e-006 -1.11823e-005 25.0998 5.68173 0.0889429 -1.28451e-005 -5.25243e-006 -3.01131 8.03008 -4.95138 0.697729 -71.3015 -7.62486 5.09148 -113.992 43.7851 6.10192 -3.74744e-007 2.6614e-008 -2.92708e-007 -27.4562 1.31762 -1.04654 6.50927e-006 -1.13405e-006 2.99828 -8.03044 -4.95136 -0.697709 176.94 21.0928 -1.39536 -180 7.01568e-015 179.021 176.614 24.8754 -179.854 1.11398e-006 3.14742e-006 0.586592 -22.2145 70.9775 22.4495 8.12896 25.2345 -3.48453 177.454 17.0574 4.6745 4.54188e-006 -4.6773e-006 -1.20682 -1.27807 -23.4956 0.445434 -1.60676e-006 -2.56942e-006 -0.8181 24.3787 73.4214 -25.535 -8.13061 25.2354 3.48511 
51.5882 86.525 11.6525 1.99761 3.92718 -1.77485 1.0359 -1.52506 1.16574 2.08542 0.967674 2.2227 2.06007 2.61161 2.18881 -18.1586 0.684672 -2.61841 14.9094 8.67359 -6.057 53.3891 -7.39982 -4.37462 128.148 46.434 -24.0916 7.13664e-006 -3.74823e-006 -1.11823e-005 25.0506 5.51675 0.120678 -1.28451e-005 -5.25243e-006 -3.01131 8.03008 -4.95138 0.697729 -71.3753 -7.63467 5.09841 -113.922 43.5829 5.73007 -3.74744e-007 2.6614e-008 -2.92708e-007 -27.3586 1.41523 -1.00449 6.50927e-006 -1.13405e-006 2.99775 -8.03044 -4.95136 -0.697709 176.944 21.1684 -1.40658 -180 7.01569e-015 179.021 176.615 24.9058 -179.854 1.11398e-006 3.14742e-006 0.586678 -22.2389 71.0001 22.4773 8.12896 25.2345 -3.48453 177.441 17.133 4.69753 4.54188e-006 -4.6773e-006 -1.20668 -1.27369 -23.5227 0.446769 -1.60676e-006 -2.56942e-006 -0.819476 24.4079 73.4397 -25.5627 -8.13061 25.2354 3.48511 
